# xmcd
#
# Track frame offsets:
# 150
# 14292
# 26579
# 42893
# 55463
# 73954
# 94618
# 113470
# 128265
# 142106
# 151719
# 169898
#
# Disc length: 2512 seconds
#
#
# Revision: 0
# Processed by: cddbd v1.5.2PL0 Copyright (c) Steve Scherf et al.
# Submitted via: FreeRIP 2.943 
#
DISCID=9609ce0c
DTITLE=Deafness - Louder Than All
DYEAR=2004
DGENRE=Contemporary Christian
TTITLE0=Indestructible
TTITLE1=Cannot Be
TTITLE2=Inside of Me
TTITLE3=Cost Too Much
TTITLE4=Fallen
TTITLE5=Beautiful Whore
TTITLE6=More
TTITLE7=To Feel
TTITLE8=Remind Me to Breathe
TTITLE9=Too Far
TTITLE10=Lies
TTITLE11=I've Been There
EXTD=
EXTT0=
EXTT1=
EXTT2=
EXTT3=
EXTT4=
EXTT5=
EXTT6=
EXTT7=
EXTT8=
EXTT9=
EXTT10=
EXTT11=
PLAYORDER=
